<?xml version="1.0" encoding="UTF-8"?>
<svg id="Layer_2" data-name="Layer 2" xmlns="http://www.w3.org/2000/svg" width="431.08594" height="282.49894" xmlns:xlink="http://www.w3.org/1999/xlink" viewBox="0 0 431.08594 282.49894">
  <defs>
    <linearGradient id="linear-gradient" x1="147.44432" y1="230.23335" x2="276.58772" y2="230.23335" gradientUnits="userSpaceOnUse">
      <stop offset="0" stop-color="#03b3ff"/>
      <stop offset=".21441" stop-color="#02acff"/>
      <stop offset=".51288" stop-color="#019aff"/>
      <stop offset=".85914" stop-color="#007dff"/>
      <stop offset="1" stop-color="#006fff"/>
    </linearGradient>
    <linearGradient id="linear-gradient-2" x1="215.54297" y1="170.28991" x2="215.54297" y2="117.48522" xlink:href="#linear-gradient"/>
    <linearGradient id="linear-gradient-3" x1="215.54297" y1="170.28991" x2="215.54297" y2="117.48522" xlink:href="#linear-gradient"/>
    <linearGradient id="linear-gradient-4" x1="215.54297" y1="170.28991" x2="215.54297" y2="117.48522" xlink:href="#linear-gradient"/>
    <linearGradient id="linear-gradient-5" x1="215.54297" y1="170.28991" x2="215.54297" y2="117.48522" xlink:href="#linear-gradient"/>
    <linearGradient id="linear-gradient-6" x1="215.54297" y1="170.28991" x2="215.54297" y2="117.48522" xlink:href="#linear-gradient"/>
    <linearGradient id="linear-gradient-7" x1="215.54297" y1="170.28991" x2="215.54297" y2="117.48522" xlink:href="#linear-gradient"/>
    <linearGradient id="linear-gradient-8" x1="215.54297" y1="170.28991" x2="215.54297" y2="117.48522" xlink:href="#linear-gradient"/>
    <linearGradient id="linear-gradient-9" x1="215.54297" y1="170.28991" x2="215.54297" y2="117.48522" xlink:href="#linear-gradient"/>
    <linearGradient id="linear-gradient-10" x1="215.54297" y1="170.28991" x2="215.54297" y2="117.48522" xlink:href="#linear-gradient"/>
    <linearGradient id="linear-gradient-11" x1="146.96922" y1="54.80256" x2="276.11262" y2="54.80256" xlink:href="#linear-gradient"/>
    <linearGradient id="linear-gradient-12" x1="86.44802" y1="95.78308" x2="86.44802" y2="109.60512" xlink:href="#linear-gradient"/>
    <linearGradient id="linear-gradient-13" x1="-483.31289" y1="177.96776" x2="-483.31289" y2="191.78979" gradientTransform="translate(-146.17841) rotate(-180) scale(1 -1)" xlink:href="#linear-gradient"/>
  </defs>
  <g id="Layer_1-2" data-name="Layer 1">
    <path d="M268.45272,177.96776v85.21021c0,6.26725-4.91843,11.18561-11.18568,11.18561h-90.5021c-6.26717,0-11.18561-4.91836-11.18561-11.18561v-85.21021h-8.13501v85.21042c0,10.63319,8.68735,19.32076,19.32062,19.32076h90.5021c10.63327,0,19.32069-8.68735,19.32069-19.32076v-85.21042h-8.13501Z" style="fill: url(#linear-gradient); fill-rule: evenodd;"/>
    <g>
      <path d="M10.54688,117.52038v42.89062h28.125v9.84375H0v-52.73438H10.54688Z" style="fill: url(#linear-gradient-2);"/>
      <path d="M47.21484,170.25475v-52.69922l38.74219-.03516v9.84375h-28.19531v11.25h21.12891v9.80859h-21.12891v11.98828h28.125v9.84375H47.21484Z" style="fill: url(#linear-gradient-3);"/>
      <path d="M139.60547,117.52038v9.84375h-17.57812v42.89062h-10.54688v-42.89062h-17.57812v-9.84375h45.70312Z" style="fill: url(#linear-gradient-4);"/>
      <path d="M147.44531,170.25475v-52.73438h3.51562l22.85156,26.01562,22.88672-26.01562h3.51562v52.73438h-10.54688l-.03516-30.58594-15.82031,17.57812-15.82031-17.57812v30.58594h-10.54688Z" style="fill: url(#linear-gradient-5);"/>
      <path d="M215.61328,162.67858c-5.03906-5.05029-7.55859-11.31445-7.55859-18.79102,0-7.5,2.51953-13.76904,7.55859-18.80859,5.03906-5.03906,11.30859-7.55859,18.80859-7.55859s13.76953,2.51953,18.80859,7.55859c5.03906,5.03955,7.55859,11.30859,7.55859,18.80859,0,7.50049-2.51953,13.76953-7.55859,18.80859-5.03906,5.03955-11.30859,7.55859-18.80859,7.55859s-13.76953-2.52539-18.80859-7.57617Zm18.84375-2.26758c4.66406,0,8.46094-1.58203,11.39062-4.74609s4.39453-7.08936,4.39453-11.77734c0-4.6875-1.46484-8.61328-4.39453-11.77734s-6.75-4.74609-11.46094-4.74609c-4.66406,0-8.46094,1.58203-11.39062,4.74609s-4.39453,7.08984-4.39453,11.77734c0,4.68799,1.46484,8.61328,4.39453,11.77734s6.75,4.74609,11.46094,4.74609Z" style="fill: url(#linear-gradient-6);"/>
      <path d="M306.07031,142.44616c4.61719,3.09375,7.06641,7.11377,7.34766,12.05859-.46875,9.9375-5.77734,15.19971-15.92578,15.78516l-29.67188-.03516v-52.69922h27.98438c8.88281,.51562,13.57031,5.68359,14.0625,15.50391-.16406,4.68799-1.42969,7.81689-3.79688,9.38672Zm-27.66797-3.76172h14.76562c4.24219-.07031,6.42188-2.26172,6.53906-6.57422-.11719-2.57812-2.26172-3.9375-6.43359-4.07812h-14.87109v10.65234Zm0,23.34375h17.22656c4.94531-.07031,7.47656-2.61328,7.59375-7.62891-.11719-3.375-2.61328-5.13281-7.48828-5.27344h-17.33203v12.90234Z" style="fill: url(#linear-gradient-7);"/>
      <path d="M323.92969,117.48522h10.51172v52.76953h-10.51172v-52.76953Z" style="fill: url(#linear-gradient-8);"/>
      <path d="M355.67578,117.52038v42.89062h28.125v9.84375h-38.67188v-52.73438h10.54688Z" style="fill: url(#linear-gradient-9);"/>
      <path d="M392.34375,170.25475v-52.69922l38.74219-.03516v9.84375h-28.19531v11.25h21.12891v9.80859h-21.12891v11.98828h28.125v9.84375h-38.67188Z" style="fill: url(#linear-gradient-10);"/>
    </g>
    <path d="M155.10423,109.60512V19.32055c0-6.26725,4.91843-11.18561,11.18561-11.18561h12.18264c1.12326,0,2.0338,.91062,2.0338,2.0338v1.01687c-.00007,3.3697,2.73151,6.10134,6.10113,6.10134h50.33556c3.36963,0,6.10127-2.73165,6.10127-6.10134v-1.01687c0-1.12319,.91048-2.0338,2.03373-2.0338h11.71395c6.26725,0,11.18568,4.91836,11.18568,11.18561V109.60512h8.13501V19.32076c0-10.63341-8.68742-19.32076-19.32069-19.32076h-90.5021c-10.63327,0-19.32062,8.68735-19.32062,19.32076V108.60512l8.13501,1Z" style="fill: url(#linear-gradient-11); fill-rule: evenodd;"/>
    <polyline points="17.78857 95.78308 155.10748 95.78308 155.10748 109.60512" style="fill: url(#linear-gradient-12);"/>
    <polyline points="405.79393 177.96776 268.47502 177.96776 268.47502 191.78979" style="fill: url(#linear-gradient-13);"/>
  </g>
</svg>